<svg width="24" height="25" viewBox="0 0 24 25" fill="none" xmlns="http://www.w3.org/2000/svg">
<path fill-rule="evenodd" clip-rule="evenodd" d="M6.06646 11.6345C6.06646 8.35745 8.72274 5.70117 11.9998 5.70117C15.2768 5.70117 17.9331 8.35745 17.9331 11.6345L17.9341 12.8264C17.9341 13.5309 18.0888 14.2266 18.3894 14.8639L18.8107 15.759C19.4539 17.1271 18.4556 18.6994 16.9445 18.6994H7.05502C5.54299 18.6994 4.54567 17.1271 5.18882 15.759L5.61012 14.8639C5.90981 14.2266 6.06549 13.5309 6.06549 12.8264L6.06646 11.6345Z" stroke="#9CA3AF" stroke-width="1.5" stroke-linecap="round" stroke-linejoin="round"/>
<path d="M9.19922 18.7002C9.19922 20.2463 10.4534 21.5005 11.9995 21.5005C13.5466 21.5005 14.7998 20.2463 14.7998 18.7002" stroke="#9CA3AF" stroke-width="1.5" stroke-linecap="round" stroke-linejoin="round"/>
<path d="M13.6044 5.914V5.10447C13.6044 4.21807 12.8854 3.5 11.999 3.5C11.1126 3.5 10.3945 4.21807 10.3945 5.10447V5.914" stroke="#9CA3AF" stroke-width="1.5" stroke-linecap="round" stroke-linejoin="round"/>
</svg>
