<svg width="19" height="19" viewBox="0 0 19 19" fill="none" xmlns="http://www.w3.org/2000/svg">
<path fill-rule="evenodd" clip-rule="evenodd" d="M5.01486 12.3877C6.43998 12.0207 8.69771 11.5763 11.3947 11.5187C12.5272 11.4939 13.2759 10.3373 12.8067 9.30622L10.8109 4.91923C10.0922 3.33942 8.72831 3.14458 7.96503 3.98302C6.1481 5.97949 4.32748 7.39001 3.11471 8.22262C2.33101 8.76037 2.24563 9.69809 2.63967 10.5635L2.93301 11.2093C3.32778 12.0769 4.09178 12.6256 5.01486 12.3877Z"  stroke-linecap="round" stroke-linejoin="round"/>
<path d="M8.62627 11.7097L9.6318 13.9177C9.92152 14.5555 9.64057 15.3188 8.99182 15.6136C8.349 15.9062 7.58862 15.6172 7.29819 14.9788L6.01172 12.1519"  stroke-linecap="round" stroke-linejoin="round"/>
<path d="M4.29492 7.38547L5.29024 9.57389"  stroke-linecap="round" stroke-linejoin="round"/>
<path d="M15.4627 8.39009C16.0013 7.36996 16.0778 6.12071 15.5634 4.98967C15.0359 3.83017 14.0069 3.0574 12.8496 2.81149" stroke-linecap="round" stroke-linejoin="round"/>
<path d="M13.7943 7.56896C14.0089 7.03627 14.0133 6.4204 13.7571 5.85634C13.5076 5.30906 13.0596 4.91429 12.5371 4.72018" stroke-linecap="round" stroke-linejoin="round"/>
</svg>
