<svg width="25" height="26" viewBox="0 0 25 26" fill="none" xmlns="http://www.w3.org/2000/svg">
<path fill-rule="evenodd" clip-rule="evenodd" d="M8.85402 20.4602L9.95339 21.5596C10.4 22.0061 11.1238 22.0061 11.5704 21.5596L12.6697 20.4602C12.983 20.1469 13.4072 19.9718 13.8499 19.9718H14.6768C16.359 19.9718 17.723 18.6078 17.723 16.9247V11.5757C17.723 9.89355 16.359 8.52954 14.6768 8.52954H6.8479C5.16479 8.52954 3.80078 9.89355 3.80078 11.5757V16.9247C3.80078 18.6078 5.16479 19.9718 6.8479 19.9718H7.67389C8.11656 19.9718 8.54074 20.1469 8.85402 20.4602Z" stroke="#9CA3AF" stroke-width="1.5" stroke-linecap="round" stroke-linejoin="round"/>
<path d="M7.87891 8.5298V7.75148C7.87891 6.07031 9.24096 4.70923 10.9289 4.70923H18.7579C20.439 4.70923 21.8011 6.07031 21.8011 7.75148V13.1014C21.8011 14.7894 20.439 16.1505 18.7579 16.1505H17.9319C17.8618 16.1505 17.7927 16.1583 17.7227 16.1651" stroke="#9CA3AF" stroke-width="1.5" stroke-linecap="round" stroke-linejoin="round"/>
<path d="M12.9541 14.3811V14.4509M13.237 14.3961C13.237 14.5532 13.1095 14.6806 12.9524 14.6806C12.7953 14.6806 12.668 14.5532 12.668 14.3961C12.668 14.2389 12.7953 14.1116 12.9524 14.1116C13.1095 14.1116 13.237 14.2389 13.237 14.3961Z" stroke="#9CA3AF" stroke-width="1.5" stroke-linecap="round" stroke-linejoin="round"/>
<path d="M8.26858 14.3811V14.4509M8.55144 14.3961C8.55144 14.5532 8.42397 14.6806 8.26685 14.6806C8.10972 14.6806 7.98242 14.5532 7.98242 14.3961C7.98242 14.2389 8.10972 14.1116 8.26685 14.1116C8.42397 14.1116 8.55144 14.2389 8.55144 14.3961Z" stroke="#9CA3AF" stroke-width="1.5" stroke-linecap="round" stroke-linejoin="round"/>
</svg>
