<svg width="24" height="25" viewBox="0 0 24 25" fill="none" xmlns="http://www.w3.org/2000/svg">
<path fill-rule="evenodd" clip-rule="evenodd" d="M14.7671 13.8723L11.0951 15.9623C10.9421 16.0453 10.7781 16.0863 10.6161 16.0863C10.4431 16.0863 10.2721 16.0393 10.1181 15.9473C9.82206 15.7713 9.64506 15.4623 9.64506 15.1183V10.9373C9.64506 10.5873 9.82706 10.2713 10.1311 10.0963C10.4331 9.92134 10.7931 9.91934 11.0971 10.0943L14.7671 12.1843C15.0691 12.3543 15.2571 12.6793 15.2571 13.0273C15.2571 13.3773 15.0691 13.7003 14.7671 13.8723ZM21.0651 7.89034C20.8061 6.82034 19.9981 5.96434 18.9571 5.65134C17.1901 5.06834 6.66906 5.10134 5.05706 5.68634C4.01206 5.98434 3.19906 6.84434 2.94806 7.88634C2.35606 9.61734 2.35606 16.4603 2.93906 18.1723C3.22906 19.2173 4.04106 20.0443 5.02406 20.3173C5.88906 20.6313 8.97806 20.7863 12.0491 20.7863C15.1001 20.7863 18.1351 20.6333 18.9491 20.3273C19.9941 20.0173 20.8051 19.1583 21.0521 18.1323C21.6421 16.4343 21.6441 9.60934 21.0651 7.89034Z" fill="#111827"/>
</svg>
