<svg width="18" height="18" viewBox="0 0 18 18" fill="none" xmlns="http://www.w3.org/2000/svg">
<path fill-rule="evenodd" clip-rule="evenodd" d="M9.76671 11.7271C9.76671 12.0203 9.52871 12.2583 9.23546 12.2583C8.94221 12.2583 8.70421 12.0203 8.70421 11.7271V9.65166C8.70421 9.35841 8.94221 9.12041 9.23546 9.12041C9.52871 9.12041 9.76671 9.35841 9.76671 9.65166V11.7271ZM16.0737 7.59537L14.9538 6.67598C14.9524 6.67527 14.951 6.67385 14.951 6.67385L10.6287 3.12864C9.82975 2.46635 8.6695 2.46706 7.87333 3.12581L3.54898 6.67385C3.54615 6.67527 3.54403 6.6781 3.54119 6.67952L2.42557 7.59537C2.12311 7.84328 2.07919 8.28953 2.32711 8.59199C2.57573 8.89516 3.02198 8.93907 3.32373 8.69116L3.43211 8.60191L4.2219 13.3038C4.42307 14.5002 5.44873 15.3679 6.66069 15.3679H11.8372C13.0498 15.3679 14.0755 14.5002 14.2767 13.3038L15.0665 8.60191L15.1755 8.69116C15.3073 8.79882 15.4667 8.85124 15.6246 8.85124C15.8293 8.85124 16.0319 8.7627 16.1722 8.59199C16.4208 8.28953 16.3762 7.84328 16.0737 7.59537Z" fill="#111827"/>
</svg>
