<svg width="6" height="5" viewBox="0 0 6 5" fill="none" xmlns="http://www.w3.org/2000/svg">
<path d="M3 4.89069C2.59896 4.89069 2.23272 4.79292 1.90128 4.59737C1.56984 4.3985 1.30469 4.13335 1.10582 3.80191C0.910275 3.47047 0.8125 3.10423 0.8125 2.70319C0.8125 2.29884 0.910275 1.93259 1.10582 1.60447C1.30469 1.27303 1.56984 1.00954 1.90128 0.813987C2.23272 0.615123 2.59896 0.515691 3 0.515691C3.40436 0.515691 3.7706 0.615123 4.09872 0.813987C4.43016 1.00954 4.69366 1.27303 4.8892 1.60447C5.08807 1.93259 5.1875 2.29884 5.1875 2.70319C5.1875 3.10423 5.08807 3.47047 4.8892 3.80191C4.69366 4.13335 4.43016 4.3985 4.09872 4.59737C3.7706 4.79292 3.40436 4.89069 3 4.89069Z" fill="#111827"/>
</svg>
