<svg width="24" height="25" viewBox="0 0 24 25" fill="none" xmlns="http://www.w3.org/2000/svg">
<path fill-rule="evenodd" clip-rule="evenodd" d="M5.65107 22C5.28107 22 4.93307 21.856 4.67107 21.594C4.41107 21.333 4.26707 20.985 4.26807 20.616V6.915C4.26807 4.427 6.00707 3 9.04007 3H14.9571C18.0321 3 19.7271 4.451 19.7271 7.086L19.7321 20.612C19.7321 20.849 19.6701 21.084 19.5531 21.292C19.3721 21.613 19.0761 21.845 18.7201 21.944C18.3631 22.045 17.9901 21.998 17.6681 21.816L12.0251 18.63L6.32907 21.823C6.12007 21.939 5.88607 22 5.65107 22ZM8.55725 10.5097H15.3663C15.7803 10.5097 16.1163 10.1737 16.1163 9.7597C16.1163 9.3457 15.7803 9.0097 15.3663 9.0097H8.55725C8.14325 9.0097 7.80725 9.3457 7.80725 9.7597C7.80725 10.1737 8.14325 10.5097 8.55725 10.5097Z" fill="black"/>
</svg>
